<svg width="688" height="622" viewBox="0 0 688 622" fill="none" xmlns="http://www.w3.org/2000/svg">
<g clip-path="url(#clip0_1763_4147)">
<rect width="688" height="622" fill="white"/>
<path d="M443.185 22.8554L762.578 57.9773L738.602 276.01C738.3 278.754 735.83 280.735 733.085 280.433L423.633 246.404C420.888 246.102 418.908 243.633 419.209 240.888L443.185 22.8554Z" fill="white"/>
<path d="M443.185 22.8554L762.578 57.9773L738.602 276.01C738.3 278.754 735.83 280.735 733.085 280.433L423.633 246.404C420.888 246.102 418.908 243.633 419.209 240.888L443.185 22.8554Z" stroke="#F2F2F2" stroke-width="10"/>
<path d="M549.488 161.516L508.732 157.034L501.562 222.243L542.317 226.725L549.488 161.516Z" fill="#E6E6E6"/>
<path d="M613.236 123.611L572.48 119.129L560.43 228.716L601.185 233.198L613.236 123.611Z" fill="#E6E6E6"/>
<path d="M619.85 234.75L637.468 74.5331L677.229 78.9055L659.611 239.122L619.85 234.75Z" fill="#FCF3F3" stroke="#BE1816"/>
<path d="M673.437 242.977L490.491 222.859L505.692 85.7261L507.503 85.9252L492.501 221.246L673.637 241.165L673.437 242.977Z" fill="#939393"/>
<path d="M438.415 9.94008C439.018 4.45033 443.958 0.489379 449.448 1.09306L761.195 35.3742C766.685 35.9779 770.646 40.9176 770.042 46.4074L769.242 53.6798L437.615 17.2125L438.415 9.94008Z" fill="#580101"/>
<path d="M282.007 374.627L602.818 392.649L590.515 611.651C590.361 614.408 588 616.517 585.243 616.362L274.415 598.901C271.658 598.746 269.549 596.385 269.704 593.628L282.007 374.627Z" fill="white"/>
<path d="M566.389 439.508L566.354 440.138L570.13 440.349L570.165 439.72L566.389 439.508Z" fill="#DDDDDD"/>
<path d="M558.723 439.71L551.094 439.283L551.13 438.653L558.758 439.081L558.723 439.71ZM543.466 438.855L535.837 438.427L535.872 437.798L543.501 438.225L543.466 438.855ZM528.208 437.999L520.58 437.571L520.615 436.942L528.244 437.37L528.208 437.999ZM512.951 437.143L505.323 436.715L505.358 436.086L512.987 436.514L512.951 437.143ZM497.694 436.288L490.066 435.86L490.101 435.23L497.729 435.658L497.694 436.288ZM482.437 435.432L474.808 435.004L474.844 434.375L482.472 434.802L482.437 435.432ZM467.18 434.576L459.551 434.148L459.586 433.519L467.215 433.947L467.18 434.576ZM451.923 433.72L444.294 433.293L444.329 432.663L451.958 433.091L451.923 433.72ZM436.665 432.865L429.037 432.437L429.072 431.807L436.701 432.235L436.665 432.865ZM421.408 432.009L413.78 431.581L413.815 430.952L421.443 431.38L421.408 432.009ZM406.151 431.153L398.522 430.725L398.558 430.096L406.186 430.524L406.151 431.153ZM390.894 430.298L383.265 429.87L383.301 429.24L390.929 429.668L390.894 430.298ZM375.637 429.442L368.008 429.014L368.043 428.385L375.672 428.813L375.637 429.442ZM360.379 428.586L352.751 428.158L352.786 427.529L360.415 427.957L360.379 428.586ZM345.122 427.73L337.494 427.303L337.529 426.673L345.158 427.101L345.122 427.73ZM329.865 426.875L322.236 426.447L322.272 425.817L329.9 426.245L329.865 426.875Z" fill="#DDDDDD"/>
<path d="M310.867 425.178L310.832 425.808L314.608 426.019L314.643 425.39L310.867 425.178Z" fill="#DDDDDD"/>
<path d="M439.119 491.085L439.084 491.715L442.86 491.927L442.895 491.297L439.119 491.085Z" fill="#DDDDDD"/>
<path d="M431.571 491.294L424.056 490.872L424.091 490.243L431.606 490.665L431.571 491.294ZM416.541 490.451L409.025 490.029L409.061 489.4L416.576 489.822L416.541 490.451ZM401.51 489.608L393.995 489.186L394.03 488.557L401.545 488.978L401.51 489.608ZM386.48 488.765L378.964 488.343L379 487.714L386.515 488.136L386.48 488.765ZM371.449 487.922L363.933 487.5L363.969 486.871L371.484 487.292L371.449 487.922ZM356.418 487.079L348.903 486.657L348.938 486.028L356.454 486.449L356.418 487.079ZM341.388 486.236L333.872 485.814L333.908 485.185L341.423 485.606L341.388 486.236ZM326.357 485.393L318.842 484.971L318.877 484.342L326.392 484.763L326.357 485.393Z" fill="#DDDDDD"/>
<path d="M307.584 483.709L307.549 484.338L311.325 484.55L311.36 483.92L307.584 483.709Z" fill="#DDDDDD"/>
<path d="M363.932 514.648L363.896 515.277L367.673 515.489L367.708 514.86L363.932 514.648Z" fill="#DDDDDD"/>
<path d="M356.167 514.843L348.434 514.409L348.47 513.78L356.202 514.213L356.167 514.843ZM340.702 513.975L332.97 513.542L333.005 512.912L340.737 513.346L340.702 513.975ZM325.238 513.108L317.506 512.674L317.541 512.045L325.273 512.479L325.238 513.108Z" fill="#DDDDDD"/>
<path d="M306.031 511.399L305.996 512.028L309.772 512.24L309.808 511.611L306.031 511.399Z" fill="#DDDDDD"/>
<path d="M361.283 561.904L361.248 562.533L365.024 562.745L365.059 562.116L361.283 561.904Z" fill="#DDDDDD"/>
<path d="M353.516 562.1L345.784 561.666L345.819 561.037L353.551 561.47L353.516 562.1ZM338.052 561.232L330.32 560.799L330.355 560.169L338.087 560.603L338.052 561.232ZM322.588 560.365L314.856 559.931L314.891 559.302L322.623 559.735L322.588 560.365Z" fill="#DDDDDD"/>
<path d="M303.381 558.657L303.346 559.286L307.122 559.498L307.157 558.869L303.381 558.657Z" fill="#DDDDDD"/>
<path d="M324.608 560.963L542.267 573.17C547.537 573.46 552.707 571.647 556.643 568.13C560.579 564.612 562.958 559.677 563.26 554.407L569.272 447.211L568.841 447.199L473.197 532.679L446.679 503.017C446.191 502.468 445.582 502.039 444.9 501.764C444.219 501.489 443.482 501.376 442.75 501.434C441.639 501.541 440.595 502.011 439.779 502.772L389.656 547.565L370.267 525.879C369.849 525.411 369.343 525.029 368.777 524.757C368.212 524.484 367.598 524.326 366.971 524.291C366.344 524.256 365.717 524.345 365.124 524.552C364.532 524.76 363.986 525.082 363.518 525.5C363.181 525.807 330.756 555.321 324.608 560.963Z" fill="#FCF3F3"/>
<path d="M323.645 561.54L323.225 561.07L363.333 525.223C364.393 524.277 365.785 523.791 367.203 523.87C368.622 523.95 369.951 524.589 370.898 525.647L389.902 546.909L439.745 502.361C440.805 501.415 442.197 500.929 443.615 501.009C445.033 501.088 446.362 501.727 447.31 502.785L473.442 532.023L569.583 446.095L570.003 446.565L473.392 532.913L446.84 503.205C446.426 502.742 445.925 502.366 445.366 502.096C444.807 501.827 444.2 501.67 443.58 501.636C442.96 501.601 442.339 501.688 441.753 501.894C441.167 502.099 440.628 502.417 440.165 502.831L389.852 547.799L370.428 526.067C369.592 525.134 368.419 524.57 367.168 524.5C365.917 524.43 364.689 524.859 363.753 525.693L323.645 561.54Z" fill="#BE1816"/>
<path d="M369.726 519.089C371.888 517.965 372.73 515.3 371.606 513.138C370.481 510.976 367.817 510.135 365.655 511.259C363.493 512.383 362.651 515.047 363.776 517.209C364.9 519.371 367.564 520.213 369.726 519.089Z" fill="#580101"/>
<path d="M444.915 495.526C447.078 494.402 447.919 491.738 446.795 489.576C445.671 487.414 443.007 486.572 440.845 487.696C438.682 488.82 437.841 491.484 438.965 493.646C440.089 495.809 442.753 496.65 444.915 495.526Z" fill="#580101"/>
<path d="M569.738 442.61C571.9 441.486 572.741 438.822 571.617 436.66C570.493 434.498 567.829 433.656 565.667 434.78C563.505 435.904 562.663 438.568 563.787 440.73C564.911 442.893 567.575 443.734 569.738 442.61Z" fill="#580101"/>
<path d="M282.007 374.627L602.818 392.649L590.515 611.651C590.361 614.408 588 616.517 585.243 616.362L274.415 598.901C271.658 598.746 269.549 596.385 269.704 593.628L282.007 374.627Z" stroke="#F2F2F2" stroke-width="10"/>
<path d="M276.554 361.984C276.864 356.47 281.585 352.251 287.099 352.561L600.232 370.152C605.746 370.462 609.965 375.183 609.656 380.697L609.245 388.002L276.144 369.289L276.554 361.984Z" fill="#580101"/>
<path d="M8.17619 110.285L328.137 80.787L348.274 299.207C348.527 301.957 346.504 304.392 343.754 304.645L33.7512 333.226C31.0014 333.479 28.5668 331.455 28.3132 328.706L8.17619 110.285Z" fill="white"/>
<path d="M66.7786 194.103L54.1026 195.38C53.4151 195.448 52.7285 195.241 52.1934 194.804C51.6584 194.367 51.3186 193.736 51.2486 193.048L49.9721 180.372C49.9036 179.685 50.1106 178.998 50.5478 178.463C50.9849 177.928 51.6164 177.588 52.3037 177.518L64.9798 176.242C65.6673 176.173 66.3539 176.38 66.8889 176.817C67.4239 177.254 67.7637 177.886 67.8337 178.573L69.1103 191.249C69.1788 191.937 68.9717 192.623 68.5346 193.158C68.0975 193.694 67.4659 194.033 66.7786 194.103Z" fill="#BE1816"/>
<path d="M70.0872 226.946L57.4112 228.223C56.7236 228.291 56.0371 228.084 55.502 227.647C54.967 227.21 54.6272 226.578 54.5572 225.891L53.2806 213.215C53.2122 212.527 53.4192 211.841 53.8564 211.306C54.2935 210.771 54.925 210.431 55.6123 210.361L68.2884 209.084C68.9759 209.016 69.6625 209.223 70.1975 209.66C70.7325 210.097 71.0723 210.729 71.1423 211.416L72.4189 224.092C72.4873 224.78 72.2803 225.466 71.8432 226.001C71.406 226.536 70.7745 226.876 70.0872 226.946Z" fill="#580101"/>
<path d="M73.3938 259.787L60.7178 261.063C60.0303 261.132 59.3437 260.925 58.8087 260.488C58.2736 260.051 57.9339 259.419 57.8639 258.732L56.5873 246.056C56.5188 245.368 56.7259 244.682 57.163 244.147C57.6001 243.612 58.2316 243.272 58.919 243.202L71.595 241.925C72.2825 241.857 72.9691 242.064 73.5041 242.501C74.0392 242.938 74.379 243.57 74.4489 244.257L75.7255 256.933C75.794 257.62 75.5869 258.307 75.1498 258.842C74.7127 259.377 74.0812 259.717 73.3938 259.787Z" fill="#CCCCCC"/>
<path d="M149.113 179.409L88.0373 185.56C87.3504 185.628 86.6648 185.42 86.1308 184.983C85.5968 184.546 85.258 183.914 85.1889 183.228C85.1197 182.541 85.3258 181.855 85.7619 181.32C86.198 180.785 86.8285 180.445 87.515 180.374L148.591 174.223C148.931 174.188 149.276 174.221 149.604 174.319C149.932 174.417 150.238 174.579 150.504 174.796C150.769 175.012 150.99 175.279 151.152 175.581C151.314 175.883 151.416 176.214 151.45 176.555C151.484 176.896 151.451 177.24 151.352 177.568C151.253 177.896 151.091 178.201 150.873 178.467C150.656 178.732 150.389 178.951 150.087 179.113C149.785 179.275 149.454 179.375 149.113 179.409Z" fill="#CCCCCC"/>
<path d="M152.419 212.252L91.3439 218.403C90.6571 218.47 89.9714 218.263 89.4374 217.826C88.9034 217.388 88.5647 216.757 88.4955 216.07C88.4263 215.384 88.6324 214.698 89.0685 214.163C89.5047 213.628 90.1351 213.288 90.8217 213.217L151.897 207.066C152.585 206.997 153.272 207.204 153.807 207.641C154.342 208.078 154.682 208.71 154.751 209.398C154.82 210.086 154.614 210.773 154.176 211.308C153.739 211.843 153.107 212.183 152.419 212.252Z" fill="#CCCCCC"/>
<path d="M155.726 245.095L94.6506 251.245C93.9637 251.313 93.2781 251.106 92.7441 250.668C92.21 250.231 91.8713 249.6 91.8021 248.913C91.733 248.226 91.9391 247.54 92.3752 247.005C92.8113 246.47 93.4418 246.13 94.1283 246.06L155.204 239.909C155.545 239.874 155.889 239.906 156.217 240.005C156.546 240.103 156.851 240.265 157.117 240.481C157.383 240.698 157.603 240.965 157.765 241.267C157.928 241.568 158.029 241.899 158.063 242.24C158.098 242.581 158.064 242.925 157.965 243.254C157.866 243.582 157.704 243.887 157.487 244.152C157.27 244.417 157.002 244.637 156.7 244.799C156.398 244.96 156.067 245.061 155.726 245.095Z" fill="#CCCCCC"/>
<path d="M302.72 195.328C302.676 194.231 302.602 193.13 302.491 192.023C301.039 177.609 293.921 164.362 282.702 155.196C271.483 146.03 257.082 141.696 242.668 143.147L248.473 200.791L302.72 195.328Z" fill="#BE1816"/>
<path d="M244.355 206.197L244.405 206.695L244.902 206.645L298.618 201.235C298.929 211.611 296.249 221.861 290.892 230.762C285.445 239.814 277.467 247.074 267.942 251.647C258.418 256.219 247.763 257.904 237.293 256.493C226.822 255.083 216.993 250.639 209.018 243.709C201.043 236.78 195.27 227.667 192.412 217.496C189.554 207.325 189.735 196.54 192.933 186.47C196.131 176.401 202.206 167.487 210.409 160.829C218.483 154.276 228.271 150.19 238.6 149.054L244.355 206.197Z" fill="#FCF3F3" stroke="#580101"/>
<path d="M8.17619 110.285L328.137 80.787L348.274 299.207C348.527 301.957 346.504 304.392 343.754 304.645L33.7512 333.226C31.0014 333.479 28.5668 331.455 28.3132 328.706L8.17619 110.285Z" stroke="#F2F2F2" stroke-width="10"/>
<path d="M0.918047 98.5867C0.411024 93.0872 4.45825 88.2179 9.95777 87.7109L322.26 58.9185C327.759 58.4115 332.629 62.4587 333.136 67.9582L333.807 75.2435L1.58971 105.872L0.918047 98.5867Z" fill="#580101"/>
</g>
<defs>
<clipPath id="clip0_1763_4147">
<rect width="688" height="622" fill="white"/>
</clipPath>
</defs>
</svg>
